<svg width="36" height="37" viewBox="0 0 36 37" fill="none" xmlns="http://www.w3.org/2000/svg">
<g clip-path="url(#clip0_97_2495)">
<path d="M18 36.5C27.9396 36.5 36 28.4396 36 18.5C36 8.5604 27.9396 0.5 18 0.5C8.0604 0.5 0 8.5604 0 18.5C0 28.4396 8.0604 36.5 18 36.5Z" fill="#FFFC00"/>
<mask id="mask0_97_2495" style="mask-type:luminance" maskUnits="userSpaceOnUse" x="8" y="9" width="20" height="19">
<path d="M8.37714 9.46436H27.6263V27.5364H8.37714V9.46436Z" fill="white"/>
</mask>
<g mask="url(#mask0_97_2495)">
<path d="M18.1115 27.3243C18.0611 27.3243 18.0143 27.3243 17.9711 27.3171C17.9387 27.3171 17.9063 27.3243 17.8739 27.3243C16.7579 27.3243 16.0451 26.8167 15.3503 26.3271C14.8751 25.9851 14.4179 25.6719 13.8923 25.5819C13.6367 25.5387 13.3703 25.5171 13.1291 25.5171C12.6791 25.5171 12.3263 25.5891 12.0707 25.6395C11.9159 25.6719 11.7755 25.6971 11.6711 25.6971C11.5631 25.6971 11.4479 25.6719 11.3939 25.4991C11.3507 25.3515 11.3183 25.2039 11.2859 25.0635C11.2103 24.7035 11.1527 24.4803 10.9979 24.4551C9.23034 24.1779 8.72274 23.8071 8.60754 23.5443C8.59314 23.5047 8.58234 23.4687 8.58234 23.4291C8.57514 23.3247 8.64714 23.2347 8.74794 23.2239C11.4659 22.7739 12.6863 19.9983 12.7367 19.8759C12.7367 19.8687 12.7367 19.8687 12.7439 19.8615C12.9095 19.5267 12.9419 19.2315 12.8411 18.9939C12.6539 18.5583 12.0455 18.3567 11.6459 18.2343C11.5487 18.2019 11.4515 18.1767 11.3831 18.1443C10.5803 17.8311 10.5083 17.5035 10.5407 17.3343C10.5911 17.0499 10.9727 16.8519 11.2787 16.8519C11.3615 16.8519 11.4407 16.8663 11.4983 16.8987C11.8583 17.0643 12.1859 17.1543 12.4667 17.1543C12.8519 17.1543 13.0247 16.9923 13.0463 16.9671C13.0319 16.7799 13.0283 16.5891 13.0139 16.3947C12.9311 15.1095 12.8339 13.5111 13.2371 12.6003C14.4575 9.87146 17.0387 9.65906 17.8019 9.65906C17.8199 9.65906 18.1367 9.65186 18.1367 9.65186H18.1835C18.9467 9.65186 21.5351 9.86426 22.7555 12.6003C23.1587 13.5111 23.0651 15.1131 22.9787 16.3947L22.9715 16.4523C22.9571 16.6323 22.9535 16.8051 22.9391 16.9743C22.9571 16.9923 23.1119 17.1399 23.4647 17.1615C23.7347 17.1471 24.0443 17.0643 24.3755 16.9059C24.4727 16.8627 24.5879 16.8483 24.6599 16.8483C24.7751 16.8483 24.8903 16.8663 24.9875 16.9131H24.9947C25.2719 17.0103 25.4447 17.2011 25.4519 17.4027C25.4591 17.5899 25.3115 17.8707 24.6023 18.1551C24.5303 18.1803 24.4367 18.2127 24.3395 18.2451C23.9363 18.3747 23.3315 18.5655 23.1443 19.0047C23.0399 19.2423 23.0723 19.5375 23.2415 19.8723C23.2415 19.8795 23.2415 19.8795 23.2487 19.8867C23.2991 20.0019 24.5195 22.7847 27.2375 23.2311C27.3419 23.2491 27.4103 23.3391 27.4031 23.4363C27.4031 23.4759 27.3887 23.5119 27.3779 23.5515C27.2699 23.8143 26.7623 24.1887 24.9875 24.4587C24.8471 24.4767 24.7895 24.6711 24.6995 25.0635C24.6671 25.2039 24.6347 25.3443 24.5915 25.4955C24.5519 25.6251 24.4763 25.6827 24.3395 25.6827H24.3215C24.2243 25.6827 24.0983 25.6647 23.9219 25.6323C23.6195 25.5747 23.2847 25.5171 22.8635 25.5171C22.6115 25.5171 22.3559 25.5351 22.1003 25.5819C21.5675 25.6719 21.1175 25.9851 20.6423 26.3271C19.9439 26.8167 19.2239 27.3243 18.1115 27.3243Z" fill="white"/>
</g>
<mask id="mask1_97_2495" style="mask-type:luminance" maskUnits="userSpaceOnUse" x="8" y="9" width="20" height="19">
<path d="M8.37714 9.46436H27.6263V27.5364H8.37714V9.46436Z" fill="white"/>
</mask>
<g mask="url(#mask1_97_2495)">
<path d="M18.1767 9.46436H18.1335H17.7987C17.0103 9.46436 14.3175 9.68396 13.0539 12.528C12.6291 13.4856 12.7335 15.1092 12.8091 16.4124C12.8235 16.5672 12.8271 16.7256 12.8343 16.8804C12.7695 16.92 12.6471 16.9632 12.4635 16.9632C12.2115 16.9632 11.9163 16.8876 11.5779 16.7256C11.4879 16.686 11.3835 16.6608 11.2755 16.6608C10.8831 16.6608 10.4151 16.9164 10.3431 17.3016C10.2927 17.5788 10.4151 17.982 11.3079 18.3348C11.3907 18.3672 11.4879 18.3996 11.5851 18.432C11.9523 18.5472 12.5103 18.7272 12.6579 19.08C12.7335 19.2672 12.7011 19.5048 12.5679 19.7856C12.5679 19.7928 12.5607 19.8 12.5607 19.8036C12.5103 19.9188 11.3331 22.5972 8.72665 23.0292C8.52865 23.0616 8.38105 23.2416 8.39185 23.4468C8.39905 23.5044 8.40985 23.5692 8.43505 23.6268C8.63305 24.084 9.45745 24.4224 10.9659 24.6528C11.0163 24.7248 11.0703 24.9624 11.0991 25.11C11.1315 25.2504 11.1639 25.4052 11.2071 25.56C11.2503 25.7148 11.3691 25.902 11.6751 25.902C11.7975 25.902 11.9451 25.8768 12.1107 25.8372C12.3627 25.7868 12.7083 25.722 13.1331 25.722C13.3707 25.722 13.6227 25.74 13.8639 25.7868C14.3535 25.8696 14.7639 26.1576 15.2391 26.4996C15.9267 26.982 16.6971 27.5328 17.8779 27.5328C17.9103 27.5328 17.9427 27.5328 17.9751 27.5256C18.0147 27.5256 18.0651 27.5328 18.1155 27.5328C19.2963 27.5328 20.0667 26.9856 20.7543 26.4996C21.2367 26.1576 21.6471 25.8696 22.1295 25.7868C22.3815 25.7472 22.6227 25.722 22.8603 25.722C23.2707 25.722 23.5911 25.7724 23.8827 25.83C24.0627 25.8696 24.2103 25.8804 24.3183 25.8804H24.3327H24.3471C24.5703 25.8804 24.7251 25.7652 24.7899 25.5456C24.8331 25.3908 24.8655 25.2432 24.8979 25.1028C24.9303 24.9552 24.9807 24.7176 25.0311 24.6456C26.5323 24.4152 27.3639 24.0732 27.5619 23.6196C27.5871 23.562 27.6015 23.4972 27.6051 23.4396C27.6195 23.2344 27.4719 23.0544 27.2703 23.022C24.6567 22.59 23.4795 19.908 23.4363 19.7964C23.4363 19.7892 23.4291 19.782 23.4291 19.7784C23.2887 19.4976 23.2563 19.26 23.3391 19.0728C23.4867 18.72 24.0447 18.54 24.4119 18.4248C24.5163 18.3924 24.6099 18.36 24.6891 18.3276C25.3371 18.072 25.6647 17.7552 25.6575 17.3916C25.6503 17.1036 25.4271 16.8444 25.0743 16.722C24.9519 16.6716 24.8115 16.6464 24.6747 16.6464C24.5775 16.6464 24.4371 16.6608 24.3075 16.722C23.9979 16.8696 23.7171 16.9452 23.4795 16.9596C23.3175 16.9524 23.2167 16.9164 23.1591 16.8768C23.1663 16.7436 23.1735 16.6068 23.1843 16.4664L23.1915 16.4088C23.2743 15.1056 23.3787 13.4784 22.9467 12.5244C21.6651 9.68036 18.9723 9.46436 18.1767 9.46436ZM18.1767 9.86036C18.9039 9.86036 21.3951 10.0548 22.5687 12.6864C22.9539 13.554 22.8567 15.1272 22.7739 16.3872C22.7595 16.5852 22.7487 16.7796 22.7415 16.9668L22.7343 17.0424L22.7847 17.1C22.8027 17.1252 23.0079 17.3304 23.4543 17.352H23.4615H23.4687C23.7639 17.3376 24.0987 17.2476 24.4587 17.082C24.5091 17.0568 24.5811 17.0424 24.6567 17.0424C24.7395 17.0424 24.8295 17.0604 24.9087 17.0856L24.9231 17.0928C25.1175 17.1576 25.2435 17.2872 25.2507 17.4024C25.2507 17.4672 25.2075 17.6976 24.5307 17.9604C24.4659 17.9856 24.3759 18.0108 24.2787 18.0432C23.8431 18.1836 23.1807 18.3888 22.9539 18.918C22.8243 19.2132 22.8639 19.5588 23.0583 19.9512C23.1339 20.1384 24.3867 22.95 27.1947 23.4144C27.1947 23.4288 27.1875 23.4396 27.1803 23.4612C27.1371 23.5692 26.8275 23.9616 24.9447 24.2496C24.6495 24.2928 24.5775 24.6276 24.4947 25.0092C24.4623 25.1424 24.4371 25.2864 24.3903 25.4268C24.3759 25.47 24.3759 25.47 24.3255 25.47H24.3075C24.2247 25.47 24.0951 25.452 23.9475 25.4268C23.6775 25.3764 23.3103 25.3116 22.8495 25.3116C22.5867 25.3116 22.3167 25.3368 22.0539 25.3764C21.4743 25.4736 21.0063 25.8084 20.5131 26.154C19.8435 26.622 19.1595 27.1116 18.1047 27.1116C18.0615 27.1116 18.0147 27.1116 17.9715 27.1044H17.9571H17.9427H17.8671C16.8123 27.1044 16.1283 26.6148 15.4587 26.1468C14.9655 25.794 14.4939 25.4664 13.9179 25.3692C13.6479 25.326 13.3779 25.3044 13.1223 25.3044C12.6543 25.3044 12.2871 25.3764 12.0243 25.4268C11.8767 25.4592 11.7471 25.4772 11.6643 25.4772C11.5923 25.4772 11.5923 25.47 11.5815 25.4268C11.5383 25.2864 11.5095 25.1388 11.4771 25.002C11.3943 24.6168 11.3223 24.282 11.0271 24.2388C9.14425 23.9508 8.84185 23.5584 8.79145 23.4504C8.78425 23.4324 8.77705 23.418 8.77705 23.4072C11.5887 22.9464 12.8379 20.1312 12.9135 19.944C13.1079 19.5516 13.1367 19.206 13.0179 18.9108C12.7947 18.3852 12.1323 18.18 11.6931 18.036C11.5887 18.0036 11.5059 17.9784 11.4411 17.9532C10.8759 17.73 10.6959 17.5032 10.7211 17.37C10.7535 17.208 11.0235 17.0496 11.2611 17.0496C11.3115 17.0496 11.3655 17.0568 11.3943 17.0748C11.7795 17.2548 12.1395 17.352 12.4491 17.352C12.9387 17.352 13.1547 17.1288 13.1799 17.1L13.2303 17.0424L13.2231 16.9668C13.2087 16.7796 13.2051 16.5888 13.1907 16.3872C13.1151 15.1236 13.0107 13.554 13.3959 12.6864C14.5659 10.0584 17.0499 9.86036 17.7843 9.86036H18.1191H18.1767Z" fill="black"/>
</g>
</g>
<defs>
<clipPath id="clip0_97_2495">
<rect width="36" height="36" fill="white" transform="translate(0 0.5)"/>
</clipPath>
</defs>
</svg>
