<svg width="36" height="37" viewBox="0 0 36 37" fill="none" xmlns="http://www.w3.org/2000/svg">
<g clip-path="url(#clip0_97_2489)">
<path d="M18 36.5C8.0604 36.5 0 28.4396 0 18.5C0 8.5604 8.0604 0.5 18 0.5C27.9396 0.5 36 8.5604 36 18.5C36 28.4396 27.9396 36.5 18 36.5Z" fill="url(#paint0_linear_97_2489)"/>
<path d="M18.0001 8.42689C21.2797 8.42689 21.6685 8.43769 22.9645 8.49889C24.1633 8.55289 24.8149 8.75449 25.2469 8.92369C25.8193 9.14689 26.2297 9.41329 26.6581 9.84169C27.0865 10.2701 27.3529 10.6805 27.5761 11.2529C27.7453 11.6849 27.9433 12.3365 28.0009 13.5353C28.0585 14.8313 28.0729 15.2201 28.0729 18.4997C28.0729 21.7793 28.0621 22.1681 28.0009 23.4641C27.9469 24.6629 27.7453 25.3145 27.5761 25.7465C27.3529 26.3189 27.0865 26.7293 26.6581 27.1577C26.2297 27.5861 25.8193 27.8525 25.2469 28.0757C24.8149 28.2449 24.1633 28.4429 22.9645 28.5005C21.6685 28.5581 21.2797 28.5725 18.0001 28.5725C14.7205 28.5725 14.3317 28.5617 13.0357 28.5005C11.8369 28.4465 11.1853 28.2449 10.7533 28.0757C10.1809 27.8525 9.77046 27.5861 9.34206 27.1577C8.91366 26.7293 8.64726 26.3189 8.42406 25.7465C8.25486 25.3145 8.05686 24.6629 7.99926 23.4641C7.94166 22.1681 7.92726 21.7793 7.92726 18.4997C7.92726 15.2201 7.93806 14.8313 7.99926 13.5353C8.05326 12.3365 8.25486 11.6849 8.42406 11.2529C8.64726 10.6805 8.91366 10.2701 9.34206 9.84169C9.77046 9.41329 10.1809 9.14689 10.7533 8.92369C11.1853 8.75449 11.8369 8.55649 13.0357 8.49889C14.3317 8.43769 14.7205 8.42689 18.0001 8.42689ZM18.0001 6.21289C14.6629 6.21289 14.2453 6.22729 12.9349 6.28849C11.6281 6.34969 10.7353 6.55489 9.95046 6.86089C9.14406 7.17049 8.45646 7.59169 7.77606 8.27569C7.09206 8.95969 6.67446 9.64369 6.35766 10.4537C6.05526 11.2349 5.84646 12.1277 5.78526 13.4381C5.72406 14.7485 5.70966 15.1661 5.70966 18.5033C5.70966 21.8405 5.72406 22.2581 5.78526 23.5685C5.84646 24.8753 6.05166 25.7681 6.35766 26.5529C6.67086 27.3557 7.09206 28.0433 7.77606 28.7237C8.46006 29.4077 9.14406 29.8253 9.95406 30.1421C10.7353 30.4445 11.6281 30.6533 12.9385 30.7145C14.2489 30.7757 14.6665 30.7901 18.0037 30.7901C21.3409 30.7901 21.7585 30.7757 23.0689 30.7145C24.3757 30.6533 25.2685 30.4481 26.0533 30.1421C26.8561 29.8289 27.5437 29.4077 28.2241 28.7237C28.9081 28.0397 29.3257 27.3557 29.6425 26.5457C29.9449 25.7645 30.1537 24.8717 30.2149 23.5613C30.2761 22.2509 30.2905 21.8333 30.2905 18.4961C30.2905 15.1589 30.2761 14.7413 30.2149 13.4309C30.1537 12.1241 29.9485 11.2313 29.6425 10.4465C29.3293 9.64369 28.9081 8.95609 28.2241 8.27569C27.5401 7.59169 26.8561 7.17409 26.0461 6.85729C25.2649 6.55489 24.3721 6.34609 23.0617 6.28489C21.7549 6.22729 21.3373 6.21289 18.0001 6.21289Z" fill="white"/>
<path d="M18.0001 12.189C14.5153 12.189 11.6893 15.015 11.6893 18.4998C11.6893 21.9846 14.5153 24.8106 18.0001 24.8106C21.4849 24.8106 24.3109 21.9846 24.3109 18.4998C24.3109 15.015 21.4849 12.189 18.0001 12.189ZM18.0001 22.5966C15.7393 22.5966 13.9033 20.7642 13.9033 18.4998C13.9033 16.2354 15.7393 14.403 18.0001 14.403C20.2609 14.403 22.0969 16.2354 22.0969 18.4998C22.0969 20.7642 20.2609 22.5966 18.0001 22.5966Z" fill="white"/>
<path d="M24.5593 13.4164C25.3745 13.4164 26.0353 12.7555 26.0353 11.9404C26.0353 11.1252 25.3745 10.4644 24.5593 10.4644C23.7441 10.4644 23.0833 11.1252 23.0833 11.9404C23.0833 12.7555 23.7441 13.4164 24.5593 13.4164Z" fill="white"/>
</g>
<defs>
<linearGradient id="paint0_linear_97_2489" x1="5.27209" y1="31.2279" x2="30.7279" y2="5.77209" gradientUnits="userSpaceOnUse">
<stop stop-color="#FFD521"/>
<stop offset="0.0551048" stop-color="#FFD020"/>
<stop offset="0.1241" stop-color="#FEC01E"/>
<stop offset="0.2004" stop-color="#FCA71B"/>
<stop offset="0.2821" stop-color="#FA8316"/>
<stop offset="0.3681" stop-color="#F85510"/>
<stop offset="0.4563" stop-color="#F51E09"/>
<stop offset="0.5" stop-color="#F30005"/>
<stop offset="0.5035" stop-color="#F20007"/>
<stop offset="0.5966" stop-color="#E1003B"/>
<stop offset="0.6879" stop-color="#D30067"/>
<stop offset="0.7757" stop-color="#C70088"/>
<stop offset="0.8589" stop-color="#BF00A0"/>
<stop offset="0.9357" stop-color="#BB00AF"/>
<stop offset="1" stop-color="#B900B4"/>
</linearGradient>
<clipPath id="clip0_97_2489">
<rect width="36" height="36" fill="white" transform="translate(0 0.5)"/>
</clipPath>
</defs>
</svg>
