<svg width="36" height="37" viewBox="0 0 36 37" fill="none" xmlns="http://www.w3.org/2000/svg">
<g clip-path="url(#clip0_97_2511)">
<path d="M18 0.5C8.06041 0.5 0 8.56041 0 18.5C0 28.4396 8.06041 36.5 18 36.5C27.9396 36.5 36 28.4396 36 18.5C36 8.56041 27.9396 0.5 18 0.5ZM27.0302 14.2723V16.7096C25.881 16.71 24.7643 16.4848 23.7112 16.0405C23.034 15.7546 22.4031 15.3862 21.8261 14.9411L21.8434 22.4429C21.8361 24.1322 21.1678 25.7193 19.9582 26.9149C18.9738 27.888 17.7265 28.5068 16.3745 28.7071C16.0568 28.7542 15.7335 28.7783 15.4066 28.7783C13.9594 28.7783 12.5854 28.3094 11.4614 27.4445C11.2499 27.2816 11.0476 27.1051 10.8551 26.9149C9.54415 25.6192 8.86816 23.8632 8.982 22.0159C9.06884 20.6097 9.63183 19.2687 10.5704 18.2176C11.8121 16.8266 13.5492 16.0546 15.4066 16.0546C15.7335 16.0546 16.0568 16.0791 16.3745 16.1262V17.0273V19.5341C16.0733 19.4347 15.7516 19.3801 15.4166 19.3801C13.7197 19.3801 12.3469 20.7646 12.3723 22.4627C12.3884 23.5493 12.9819 24.4991 13.8573 25.0226C14.2687 25.2687 14.7419 25.4211 15.247 25.4488C15.6427 25.4706 16.0227 25.4154 16.3745 25.2993C17.5869 24.8988 18.4615 23.76 18.4615 22.4169L18.4655 17.3933V8.22172H21.822C21.8252 8.5543 21.859 8.87879 21.9217 9.19323C22.175 10.466 22.8924 11.5701 23.8909 12.3229C24.7615 12.9796 25.8455 13.3688 27.0205 13.3688C27.0213 13.3688 27.031 13.3688 27.0302 13.368V14.2723H27.0302Z" fill="black"/>
</g>
<defs>
<clipPath id="clip0_97_2511">
<rect width="36" height="36" fill="white" transform="translate(0 0.5)"/>
</clipPath>
</defs>
</svg>
