<svg width="36" height="37" viewBox="0 0 36 37" fill="none" xmlns="http://www.w3.org/2000/svg">
<g clip-path="url(#clip0_97_2485)">
<path d="M36 18.5C36 27.4845 29.4173 34.9313 20.8125 36.2813V23.7031H25.0066L25.8047 18.5H20.8125V15.1236C20.8125 13.6998 21.51 12.3125 23.7459 12.3125H26.0156V7.88281C26.0156 7.88281 23.9555 7.53125 21.986 7.53125C17.8748 7.53125 15.1875 10.0231 15.1875 14.5344V18.5H10.6172V23.7031H15.1875V36.2813C6.58266 34.9313 0 27.4845 0 18.5C0 8.55922 8.05922 0.5 18 0.5C27.9408 0.5 36 8.55922 36 18.5Z" fill="#1877F2"/>
<path d="M25.0066 23.7031L25.8047 18.5H20.8125V15.1235C20.8125 13.7 21.5099 12.3125 23.7459 12.3125H26.0156V7.88281C26.0156 7.88281 23.9558 7.53125 21.9864 7.53125C17.8748 7.53125 15.1875 10.0231 15.1875 14.5344V18.5H10.6172V23.7031H15.1875V36.2813C16.104 36.4251 17.0432 36.5 18 36.5C18.9568 36.5 19.896 36.4251 20.8125 36.2813V23.7031H25.0066Z" fill="white"/>
</g>
<defs>
<clipPath id="clip0_97_2485">
<rect width="36" height="36" fill="white" transform="translate(0 0.5)"/>
</clipPath>
</defs>
</svg>
