<svg width="36" height="37" viewBox="0 0 36 37" fill="none" xmlns="http://www.w3.org/2000/svg">
<g clip-path="url(#clip0_97_2507)">
<path d="M18 0.5C8.05922 0.5 0 8.55922 0 18.5C0 28.4408 8.05922 36.5 18 36.5C27.9408 36.5 36 28.4408 36 18.5C36 8.55922 27.9408 0.5 18 0.5Z" fill="black"/>
<path d="M19.9693 16.8717L27.6749 7.91455H25.8489L19.1582 15.6919L13.8143 7.91455H7.65076L15.7317 19.6753L7.65076 29.0682H9.47684L16.5425 20.855L22.186 29.0682H28.3495L19.9689 16.8717H19.9693ZM10.1348 9.28921H12.9395L25.8498 27.756H23.045L10.1348 9.28921Z" fill="white"/>
</g>
<defs>
<clipPath id="clip0_97_2507">
<rect width="36" height="36" fill="white" transform="translate(0 0.5)"/>
</clipPath>
</defs>
</svg>
