<svg width="21" height="20" viewBox="0 0 21 20" fill="none" xmlns="http://www.w3.org/2000/svg">
<g clip-path="url(#clip0_147_3051)">
<path d="M10.4565 20C15.9794 20 20.4565 15.5228 20.4565 10C20.4565 4.47715 15.9794 0 10.4565 0C4.93369 0 0.456543 4.47715 0.456543 10C0.456543 15.5228 4.93369 20 10.4565 20Z" fill="#32BA7C"/>
<path d="M7.90137 14.5115L13.0433 19.6534C17.302 18.5178 20.4566 14.6377 20.4566 10.0004V9.71654L16.4187 5.99414L7.90137 14.5115Z" fill="#0AA06E"/>
<path d="M10.7089 12.2402C11.1505 12.6818 11.1505 13.4389 10.7089 13.8806L9.79408 14.7954C9.35244 15.237 8.59534 15.237 8.1537 14.7954L4.14739 10.7575C3.70575 10.3159 3.70575 9.55879 4.14739 9.11715L5.06222 8.20232C5.50386 7.76068 6.26096 7.76068 6.7026 8.20232L10.7089 12.2402Z" fill="white"/>
<path d="M14.2105 5.26775C14.6521 4.82611 15.4092 4.82611 15.8509 5.26775L16.7657 6.18258C17.2073 6.62422 17.2073 7.38132 16.7657 7.82296L9.82564 14.7315C9.384 15.1731 8.62691 15.1731 8.18527 14.7315L7.27044 13.8166C6.8288 13.375 6.8288 12.6179 7.27044 12.1763L14.2105 5.26775Z" fill="white"/>
</g>
<defs>
<clipPath id="clip0_147_3051">
<rect width="20" height="20" fill="white" transform="translate(0.456543)"/>
</clipPath>
</defs>
</svg>
