<svg width="111" height="111" viewBox="0 0 111 111" fill="none" xmlns="http://www.w3.org/2000/svg">
<path d="M55.5 111C86.1518 111 111 86.1518 111 55.5C111 24.8482 86.1518 0 55.5 0C24.8482 0 0 24.8482 0 55.5C0 86.1518 24.8482 111 55.5 111Z" fill="url(#paint0_linear_97_4570)"/>
<path d="M109.415 68.7247C104.119 90.4044 86.0901 107.098 63.7036 110.404L35.52 82.2203L78.3743 37.6772L109.415 68.7247Z" fill="url(#paint1_linear_97_4570)"/>
<path d="M55.5 28.4395C39.3356 28.4395 26.2324 39.4332 26.2324 52.996C26.2324 59.7623 29.4952 65.8889 34.7721 70.3289V80.746C34.7719 81.0634 34.8551 81.3751 35.0134 81.6501C35.1718 81.9251 35.3996 82.1537 35.6741 82.3129C35.9486 82.4721 36.2601 82.5564 36.5774 82.5572C36.8947 82.5581 37.2067 82.4755 37.482 82.3178L47.4547 76.6074C50.0902 77.236 52.7905 77.5525 55.5 77.5504C71.6644 77.5504 84.7676 66.5567 84.7676 52.996C84.7676 39.4354 71.6644 28.4395 55.5 28.4395Z" fill="white"/>
<defs>
<linearGradient id="paint0_linear_97_4570" x1="16.2554" y1="16.2554" x2="94.7446" y2="94.7446" gradientUnits="userSpaceOnUse">
<stop stop-color="#21D1F7"/>
<stop offset="1" stop-color="#2196F3"/>
</linearGradient>
<linearGradient id="paint1_linear_97_4570" x1="56.5276" y1="59.5239" x2="93.2444" y2="96.2428" gradientUnits="userSpaceOnUse">
<stop stop-color="#186EB3"/>
<stop offset="0.93" stop-color="#186EB3" stop-opacity="0"/>
</linearGradient>
</defs>
</svg>
