<svg width="42" height="62" viewBox="0 0 42 62" fill="none" xmlns="http://www.w3.org/2000/svg">
<path d="M31.3738 35.6829C30.9198 33.633 31.4445 31.8714 32.9266 30.4856C34.1159 29.3737 35.5842 28.9068 37.2554 29.0835C39.4367 29.3142 41.3517 31.3491 41.6551 33.373C42.034 35.9006 41.126 38.1608 38.7781 39.2552C37.1779 40.0009 35.4952 39.9611 33.8893 39.0782C32.5388 38.3356 31.7688 37.1767 31.3738 35.6829Z" fill="#521636"/>
<path d="M25.9656 39.3751C24.7629 39.7841 23.5876 39.8197 22.3885 39.5161C20.4084 39.0148 18.9748 37.2404 18.719 35.1667C18.4787 33.2182 19.0597 31.5324 20.5429 30.2578C22.101 28.9189 24.1605 28.5805 26.0091 29.5432C28.1029 30.6337 29.2948 32.7348 29.1078 34.6206C28.8953 36.7627 27.9413 38.3742 25.9656 39.3751Z" fill="#521636"/>
<path d="M12.5805 39.6471C10.1056 39.9713 8.1921 39.1609 6.96243 36.9897C6.69282 36.5137 6.51471 35.9491 6.4426 35.4056C6.29311 34.2791 6.31935 33.1641 6.7779 32.07C7.47699 30.402 9.39781 29.0864 11.2017 29.0091C12.7088 28.9446 14.0006 29.4261 15.0485 30.4305C16.5063 31.8278 17.0153 33.6064 16.5657 35.5678C16.0805 37.6842 14.7929 39.1111 12.5805 39.6471Z" fill="#521636"/>
<path d="M16.1473 50.8534C13.8285 50.2948 12.5352 47.9998 12.4605 46.0824C12.3954 44.4138 12.9407 42.9858 14.0835 41.8144C14.9714 40.9043 16.112 40.4618 17.3909 40.3738C20.5086 40.1592 22.8416 42.9911 22.783 45.6337C22.7318 47.9409 21.4317 50.0337 19.3042 50.7646C18.2632 51.1222 17.2331 51.0618 16.1473 50.8534Z" fill="#521636"/>
<path d="M28.4173 28.0828C26.5544 27.3598 25.4202 26.059 25.0763 24.117C24.7039 22.0142 25.3531 20.2493 26.9915 18.9009C28.1402 17.9556 29.494 17.6202 30.9902 17.8047C32.4067 17.9795 33.5206 18.7003 34.3097 19.7996C35.3411 21.2364 35.6652 22.8688 35.1214 24.6214C34.7575 25.7942 34.1297 26.7598 33.1072 27.4536C31.6621 28.434 30.1108 28.647 28.4173 28.0828Z" fill="#521636"/>
<path d="M0.551373 21.2392C1.26822 19.4191 2.615 18.3922 4.5227 18.0382C7.35258 17.5129 9.98698 19.4434 10.5247 22.2712C11.0461 25.0126 9.14538 28.0768 6.05517 28.4586C4.2514 28.6814 1.97477 27.841 1.1411 26.3491C1.13486 26.2248 1.1393 26.1409 1.10271 26.0829C0.4051 24.9773 0.100238 23.7919 0.345632 22.4872C0.42355 22.0729 0.483306 21.6553 0.551373 21.2392Z" fill="#EDE8DD"/>
<path d="M31.4073 50.872C28.5218 51.3387 25.8674 49.9165 25.1442 46.9023C24.7455 45.2404 25.0251 43.7111 26.0653 42.4285C27.7371 40.3673 30.0212 39.8356 32.3389 40.8937C34.3322 41.8038 35.2343 43.4803 35.3463 45.5929C35.4465 47.4814 34.7109 49.0323 33.1438 50.1107C32.6432 50.4552 32.0159 50.6156 31.4073 50.872Z" fill="#521636"/>
<path d="M16.7988 28.2695C13.765 27.8671 11.8561 25.0414 12.4448 22.0905C12.967 19.473 15.0866 17.9773 17.1468 17.7868C19.731 17.5479 22.0739 19.3773 22.6337 21.9985C23.1939 24.6215 21.6018 27.5962 18.7812 28.1934C18.1568 28.3256 17.4888 28.2521 16.7988 28.2695Z" fill="#EDE8DD"/>
<path d="M28.7125 54.9142C29.3557 57.0445 29.0699 58.9608 27.4599 60.5147C25.0729 62.8186 21.4135 62.3258 19.5882 59.8387C18.4238 58.2522 18.3725 55.8194 19.3543 54.1126C20.3751 52.338 21.9558 51.54 23.8968 51.4625C25.0808 51.4153 26.1675 51.8777 27.1141 52.6467C27.8583 53.2512 28.3708 53.9932 28.7125 54.9142Z" fill="#521636"/>
<path d="M32.0174 6.17053C30.7475 8.29401 29.4938 10.3855 28.2298 12.4941C29.9042 12.0256 31.4727 12.2199 32.8017 13.4618C33.2061 13.8398 33.315 14.1804 33.2541 14.5804C32.5344 14.4008 31.823 14.1625 31.0922 14.0522C28.8982 13.7212 27.0843 14.3245 25.8436 16.2868C25.3741 17.0293 24.8408 17.7317 24.3311 18.4485C24.2326 18.587 24.1087 18.7073 23.8948 18.9527C23.8585 18.6253 23.817 18.4371 23.8202 18.2497C23.8469 16.677 23.7976 15.1152 23.3473 13.5885C23.0688 12.6443 22.5684 11.8246 21.917 11.1168C21.1496 10.283 20.3058 9.51937 19.4942 8.72636C19.3568 8.59209 19.1994 8.47522 19.0783 8.32808C18.9543 8.17746 18.8635 7.99952 18.7581 7.83353C18.9596 7.71674 19.1517 7.52107 19.364 7.49596C20.7347 7.33378 21.88 7.80132 22.7506 8.86641C23.5722 9.87141 24.0175 11.0795 24.4807 12.2726C24.6482 12.704 24.8028 13.1404 25.0146 13.7133C25.7925 12.7172 26.5905 11.8458 27.2165 10.8647C28.8866 8.24745 30.363 5.52098 31.4208 2.58995C31.681 1.86925 31.8928 1.127 32.0653 0.380447C32.1613 -0.0352636 32.3433 -0.0661099 32.6685 0.0782435C33.047 0.24623 33.4265 0.411842 33.8713 0.607379C33.6005 2.55416 32.893 4.37055 32.0174 6.17053Z" fill="#BF904E"/>
</svg>
