<svg width="24" height="24" viewBox="0 0 24 24" fill="none" xmlns="http://www.w3.org/2000/svg">
<path d="M20.2496 22.3125H8.24956C7.70255 22.3125 7.17795 22.0952 6.79115 21.7084C6.40436 21.3216 6.18706 20.797 6.18706 20.25V19.9125C4.90744 19.616 3.76597 18.8949 2.9487 17.8666C2.13142 16.8383 1.68652 15.5635 1.68652 14.25C1.68652 12.9365 2.13142 11.6617 2.9487 10.6334C3.76597 9.60513 4.90744 8.88398 6.18706 8.5875V3.75C6.18706 3.20299 6.40436 2.67839 6.79115 2.2916C7.17795 1.9048 7.70255 1.6875 8.24956 1.6875H16.6271C16.8989 1.687 17.1681 1.74043 17.4192 1.84471C17.6702 1.94899 17.8981 2.10204 18.0896 2.295L21.7046 5.91C21.9021 6.10589 22.0578 6.33985 22.1622 6.59768C22.2666 6.85552 22.3176 7.13188 22.3121 7.41V20.25C22.3121 20.797 22.0948 21.3216 21.708 21.7084C21.3212 22.0952 20.7966 22.3125 20.2496 22.3125ZM7.31206 20.0625V20.25C7.31206 20.4986 7.41083 20.7371 7.58665 20.9129C7.76246 21.0887 8.00092 21.1875 8.24956 21.1875H20.2496C20.4982 21.1875 20.7367 21.0887 20.9125 20.9129C21.0883 20.7371 21.1871 20.4986 21.1871 20.25V8.0625H17.9996C17.4526 8.0625 16.9279 7.84521 16.5412 7.45841C16.1544 7.07162 15.9371 6.54701 15.9371 6V2.8125H8.24956C8.00092 2.8125 7.76246 2.91128 7.58665 3.08709C7.41083 3.26291 7.31206 3.50136 7.31206 3.75V8.4375H7.49956C9.04113 8.4375 10.5196 9.04989 11.6096 10.1399C12.6997 11.23 13.3121 12.7084 13.3121 14.25C13.3121 15.7916 12.6997 17.27 11.6096 18.3601C10.5196 19.4501 9.04113 20.0625 7.49956 20.0625H7.31206ZM7.49956 9.5625C6.57246 9.5625 5.66618 9.83742 4.89532 10.3525C4.12447 10.8676 3.52366 11.5996 3.16887 12.4562C2.81409 13.3127 2.72126 14.2552 2.90213 15.1645C3.083 16.0738 3.52944 16.909 4.185 17.5646C4.84055 18.2201 5.67579 18.6666 6.58507 18.8474C7.49436 19.0283 8.43686 18.9355 9.29339 18.5807C10.1499 18.2259 10.882 17.6251 11.3971 16.8542C11.9121 16.0834 12.1871 15.1771 12.1871 14.25C12.1871 13.0068 11.6932 11.8145 10.8141 10.9354C9.93505 10.0564 8.74276 9.5625 7.49956 9.5625ZM17.0621 2.9175V6C17.0621 6.24864 17.1608 6.4871 17.3366 6.66292C17.5125 6.83873 17.7509 6.9375 17.9996 6.9375H21.0821C21.0357 6.85236 20.9776 6.7741 20.9096 6.705L17.2946 3.09C17.2255 3.02197 17.1472 2.96391 17.0621 2.9175ZM18.7496 17.0625H14.9996C14.8504 17.0625 14.7073 17.0032 14.6018 16.8978C14.4963 16.7923 14.4371 16.6492 14.4371 16.5C14.4371 16.3508 14.4963 16.2077 14.6018 16.1023C14.7073 15.9968 14.8504 15.9375 14.9996 15.9375H18.7496C18.8987 15.9375 19.0418 15.9968 19.1473 16.1023C19.2528 16.2077 19.3121 16.3508 19.3121 16.5C19.3121 16.6492 19.2528 16.7923 19.1473 16.8978C19.0418 17.0032 18.8987 17.0625 18.7496 17.0625ZM6.37456 15.9375C6.22985 15.9264 6.09524 15.8591 5.99956 15.75C5.90732 15.6469 5.85632 15.5134 5.85632 15.375C5.85632 15.2366 5.90732 15.1031 5.99956 15L6.95956 14.04V12C6.95956 11.8508 7.01882 11.7077 7.12431 11.6023C7.2298 11.4968 7.37287 11.4375 7.52206 11.4375C7.67124 11.4375 7.81432 11.4968 7.91981 11.6023C8.0253 11.7077 8.08456 11.8508 8.08456 12V14.25C8.08443 14.3991 8.02508 14.5421 7.91956 14.6475L6.74956 15.75C6.65388 15.8591 6.51927 15.9264 6.37456 15.9375ZM18.7496 14.0625H15.7496C15.6004 14.0625 15.4573 14.0032 15.3518 13.8978C15.2463 13.7923 15.1871 13.6492 15.1871 13.5C15.1871 13.3508 15.2463 13.2077 15.3518 13.1023C15.4573 12.9968 15.6004 12.9375 15.7496 12.9375H18.7496C18.8987 12.9375 19.0418 12.9968 19.1473 13.1023C19.2528 13.2077 19.3121 13.3508 19.3121 13.5C19.3121 13.6492 19.2528 13.7923 19.1473 13.8978C19.0418 14.0032 18.8987 14.0625 18.7496 14.0625ZM18.7496 11.0625H14.9996C14.8504 11.0625 14.7073 11.0032 14.6018 10.8978C14.4963 10.7923 14.4371 10.6492 14.4371 10.5C14.4371 10.3508 14.4963 10.2077 14.6018 10.1023C14.7073 9.99677 14.8504 9.9375 14.9996 9.9375H18.7496C18.8987 9.9375 19.0418 9.99677 19.1473 10.1023C19.2528 10.2077 19.3121 10.3508 19.3121 10.5C19.3121 10.6492 19.2528 10.7923 19.1473 10.8978C19.0418 11.0032 18.8987 11.0625 18.7496 11.0625ZM13.4996 8.0625H11.2496C11.1004 8.0625 10.9573 8.00324 10.8518 7.89775C10.7463 7.79226 10.6871 7.64919 10.6871 7.5C10.6871 7.35082 10.7463 7.20775 10.8518 7.10226C10.9573 6.99677 11.1004 6.9375 11.2496 6.9375H13.4996C13.6487 6.9375 13.7918 6.99677 13.8973 7.10226C14.0028 7.20775 14.0621 7.35082 14.0621 7.5C14.0621 7.64919 14.0028 7.79226 13.8973 7.89775C13.7918 8.00324 13.6487 8.0625 13.4996 8.0625Z" fill="white"/>
</svg>
