<svg width="24" height="24" viewBox="0 0 24 24" fill="none" xmlns="http://www.w3.org/2000/svg">
<g clip-path="url(#clip0_111_687)">
<path d="M17.5 12C17.3923 12 17.2874 11.9653 17.201 11.901C16.947 11.712 11 7.231 11 3.63C11.0011 2.66742 11.384 1.74458 12.0647 1.06402C12.7455 0.383464 13.6684 0.000795003 14.631 9.36403e-07C15.772 9.36403e-07 16.824 0.531001 17.5 1.404C17.8394 0.966581 18.2744 0.612638 18.7717 0.369279C19.269 0.125921 19.8154 -0.000396811 20.369 9.36403e-07C21.3316 0.000795003 22.2545 0.383464 22.9353 1.06402C23.616 1.74458 23.9989 2.66742 24 3.63C24 7.231 18.053 11.712 17.799 11.901C17.7126 11.9653 17.6077 12 17.5 12ZM14.631 1C13.9336 1.00079 13.265 1.27811 12.7718 1.77113C12.2786 2.26415 12.0011 2.93263 12 3.63C12 6.057 15.724 9.478 17.5 10.87C19.276 9.478 23 6.058 23 3.63C23 2.18 21.819 1 20.369 1C19.8572 0.999319 19.3563 1.14834 18.9281 1.42872C18.4999 1.7091 18.163 2.10859 17.959 2.578C17.92 2.66724 17.8557 2.74317 17.7742 2.79649C17.6927 2.84981 17.5974 2.8782 17.5 2.8782C17.4026 2.8782 17.3073 2.84981 17.2258 2.79649C17.1443 2.74317 17.08 2.66724 17.041 2.578C16.8372 2.10844 16.5004 1.7088 16.0721 1.42839C15.6439 1.14798 15.1429 0.999063 14.631 1Z" fill="#222222"/>
<path d="M19.4997 17H6.4997C6.38415 16.9999 6.2722 16.9598 6.18287 16.8866C6.09354 16.8133 6.03235 16.7113 6.0097 16.598L4.0097 6.598C3.9952 6.52549 3.99697 6.45067 4.01488 6.37892C4.03279 6.30718 4.06639 6.2403 4.11325 6.1831C4.16012 6.1259 4.21909 6.07981 4.28591 6.04815C4.35274 6.01649 4.42575 6.00004 4.4997 6H9.4997C9.63231 6 9.75948 6.05268 9.85325 6.14645C9.94702 6.24021 9.9997 6.36739 9.9997 6.5C9.9997 6.63261 9.94702 6.75979 9.85325 6.85355C9.75948 6.94732 9.63231 7 9.4997 7H5.1097L6.9097 16H19.0897L19.9097 11.902C19.9357 11.7719 20.0123 11.6575 20.1227 11.5839C20.233 11.5103 20.3681 11.4835 20.4982 11.5095C20.6283 11.5355 20.7427 11.6121 20.8163 11.7225C20.8899 11.8328 20.9167 11.9679 20.8907 12.098L19.9907 16.598C19.9677 16.7113 19.9062 16.8132 19.8168 16.8864C19.7273 16.9597 19.6153 16.9998 19.4997 17Z" fill="#222222"/>
<path d="M6.49852 17C6.38315 16.9997 6.27143 16.9596 6.1823 16.8863C6.09318 16.813 6.03214 16.7112 6.00952 16.598L3.53052 4.20405C3.46185 3.86431 3.27794 3.55872 3.00989 3.33896C2.74185 3.11921 2.40613 2.99878 2.05952 2.99805L0.500524 3.00005C0.367915 3.00018 0.239686 2.94763 0.145824 2.85395C0.0519619 2.76028 -0.000843704 2.63316 -0.000976312 2.50055C-0.00110892 2.36794 0.0514423 2.24071 0.145117 2.14685C0.238791 2.05299 0.365915 2.00018 0.498524 2.00005L2.05652 1.99805H2.05952C3.24752 1.99805 4.27852 2.84305 4.51152 4.00805L6.98952 16.402C7.00441 16.4747 7.0029 16.5497 6.98508 16.6217C6.96727 16.6937 6.93361 16.7608 6.88655 16.8181C6.8395 16.8754 6.78025 16.9215 6.71312 16.9529C6.64598 16.9844 6.57267 17.0005 6.49852 17Z" fill="#222222"/>
<path d="M21.5 19H4.5C3.673 19 3 18.327 3 17.5C3 16.673 3.673 16 4.5 16H6.5C6.63261 16 6.75979 16.0527 6.85355 16.1464C6.94732 16.2402 7 16.3674 7 16.5C7 16.6326 6.94732 16.7598 6.85355 16.8536C6.75979 16.9473 6.63261 17 6.5 17H4.5C4.36739 17 4.24021 17.0527 4.14645 17.1464C4.05268 17.2402 4 17.3674 4 17.5C4 17.6326 4.05268 17.7598 4.14645 17.8536C4.24021 17.9473 4.36739 18 4.5 18H21.5C21.6326 18 21.7598 18.0527 21.8536 18.1464C21.9473 18.2402 22 18.3674 22 18.5C22 18.6326 21.9473 18.7598 21.8536 18.8536C21.7598 18.9473 21.6326 19 21.5 19ZM8 24C6.897 24 6 23.103 6 22C6 20.897 6.897 20 8 20C9.103 20 10 20.897 10 22C10 23.103 9.103 24 8 24ZM8 21C7.74252 21.0115 7.49941 21.1219 7.32128 21.3082C7.14315 21.4945 7.04373 21.7423 7.04373 22C7.04373 22.2577 7.14315 22.5055 7.32128 22.6918C7.49941 22.8781 7.74252 22.9885 8 23C8.25748 22.9885 8.5006 22.8781 8.67872 22.6918C8.85685 22.5055 8.95627 22.2577 8.95627 22C8.95627 21.7423 8.85685 21.4945 8.67872 21.3082C8.5006 21.1219 8.25748 21.0115 8 21ZM17 24C15.897 24 15 23.103 15 22C15 20.897 15.897 20 17 20C18.103 20 19 20.897 19 22C19 23.103 18.103 24 17 24ZM17 21C16.7425 21.0115 16.4994 21.1219 16.3213 21.3082C16.1431 21.4945 16.0437 21.7423 16.0437 22C16.0437 22.2577 16.1431 22.5055 16.3213 22.6918C16.4994 22.8781 16.7425 22.9885 17 23C17.2575 22.9885 17.5006 22.8781 17.6787 22.6918C17.8569 22.5055 17.9563 22.2577 17.9563 22C17.9563 21.7423 17.8569 21.4945 17.6787 21.3082C17.5006 21.1219 17.2575 21.0115 17 21Z" fill="#222222"/>
</g>
<defs>
<clipPath id="clip0_111_687">
<rect width="24" height="24" fill="white"/>
</clipPath>
</defs>
</svg>
